<mxfile host="app.diagrams.net" agent="Mozilla/5.0 (Macintosh; Intel Mac OS X 10_15_7) AppleWebKit/537.36 (KHTML, like Gecko) Chrome/127.0.0.0 Safari/537.36" version="24.7.13">
  <diagram name="Page-1" id="j61EQ_yQ_Mo7Y-l2gbru">
    <mxGraphModel dx="1912" dy="1048" grid="1" gridSize="10" guides="1" tooltips="1" connect="1" arrows="1" fold="1" page="1" pageScale="1" pageWidth="827" pageHeight="1169" math="0" shadow="0">
      <root>
        <mxCell id="0" />
        <mxCell id="1" parent="0" />
        <mxCell id="tiM2zd-CKT2HUMkE3FpP-7" value="CodeSignal Verification Flow" style="swimlane;horizontal=0;whiteSpace=wrap;html=1;" vertex="1" parent="1">
          <mxGeometry x="70" y="890" width="810" height="310" as="geometry">
            <mxRectangle x="70" y="890" width="40" height="180" as="alternateBounds" />
          </mxGeometry>
        </mxCell>
        <mxCell id="tiM2zd-CKT2HUMkE3FpP-13" value="" style="rounded=0;whiteSpace=wrap;html=1;fillColor=#fec600ff;strokeColor=#FFFFFF;opacity=50;" vertex="1" parent="tiM2zd-CKT2HUMkE3FpP-7">
          <mxGeometry x="40" y="21.18" width="750" height="282.32" as="geometry" />
        </mxCell>
        <mxCell id="-1Zy-BuF8MPBCuA15nqm-36" style="edgeStyle=orthogonalEdgeStyle;rounded=0;orthogonalLoop=1;jettySize=auto;html=1;exitX=0.5;exitY=0.5;exitDx=0;exitDy=0;exitPerimeter=0;" parent="tiM2zd-CKT2HUMkE3FpP-7" source="-1Zy-BuF8MPBCuA15nqm-33" target="-1Zy-BuF8MPBCuA15nqm-35" edge="1">
          <mxGeometry relative="1" as="geometry" />
        </mxCell>
        <mxCell id="-1Zy-BuF8MPBCuA15nqm-33" value="Codesignal Auditor" style="shape=umlActor;verticalLabelPosition=bottom;verticalAlign=top;html=1;outlineConnect=0;" parent="tiM2zd-CKT2HUMkE3FpP-7" vertex="1">
          <mxGeometry x="80" y="54.5" width="30" height="60" as="geometry" />
        </mxCell>
        <mxCell id="-1Zy-BuF8MPBCuA15nqm-37" style="edgeStyle=orthogonalEdgeStyle;rounded=0;orthogonalLoop=1;jettySize=auto;html=1;exitX=0.5;exitY=1;exitDx=0;exitDy=0;entryX=0.5;entryY=0;entryDx=0;entryDy=0;" parent="tiM2zd-CKT2HUMkE3FpP-7" source="-1Zy-BuF8MPBCuA15nqm-35" target="-1Zy-BuF8MPBCuA15nqm-39" edge="1">
          <mxGeometry relative="1" as="geometry">
            <mxPoint x="270.04761904761904" y="234.5" as="targetPoint" />
          </mxGeometry>
        </mxCell>
        <mxCell id="-1Zy-BuF8MPBCuA15nqm-38" value="Verified" style="edgeLabel;html=1;align=center;verticalAlign=middle;resizable=0;points=[];" parent="-1Zy-BuF8MPBCuA15nqm-37" vertex="1" connectable="0">
          <mxGeometry x="-0.2263" y="-1" relative="1" as="geometry">
            <mxPoint as="offset" />
          </mxGeometry>
        </mxCell>
        <mxCell id="-1Zy-BuF8MPBCuA15nqm-40" style="edgeStyle=orthogonalEdgeStyle;rounded=0;orthogonalLoop=1;jettySize=auto;html=1;exitX=1;exitY=0.5;exitDx=0;exitDy=0;entryX=0;entryY=0.5;entryDx=0;entryDy=0;" parent="tiM2zd-CKT2HUMkE3FpP-7" source="-1Zy-BuF8MPBCuA15nqm-35" target="-1Zy-BuF8MPBCuA15nqm-42" edge="1">
          <mxGeometry relative="1" as="geometry">
            <mxPoint x="530" y="84.40476190476193" as="targetPoint" />
          </mxGeometry>
        </mxCell>
        <mxCell id="-1Zy-BuF8MPBCuA15nqm-41" value="Not verified" style="edgeLabel;html=1;align=center;verticalAlign=middle;resizable=0;points=[];" parent="-1Zy-BuF8MPBCuA15nqm-40" vertex="1" connectable="0">
          <mxGeometry x="-0.2335" y="-1" relative="1" as="geometry">
            <mxPoint y="-3" as="offset" />
          </mxGeometry>
        </mxCell>
        <mxCell id="-1Zy-BuF8MPBCuA15nqm-35" value="Proctoring verification?" style="rhombus;whiteSpace=wrap;html=1;" parent="tiM2zd-CKT2HUMkE3FpP-7" vertex="1">
          <mxGeometry x="220" y="39.5" width="100" height="90" as="geometry" />
        </mxCell>
        <mxCell id="-1Zy-BuF8MPBCuA15nqm-39" value="preScreenResultVerified" style="rounded=1;whiteSpace=wrap;html=1;fillColor=#d5e8d4;strokeColor=#82b366;" parent="tiM2zd-CKT2HUMkE3FpP-7" vertex="1">
          <mxGeometry x="195" y="244.5" width="150" height="40" as="geometry" />
        </mxCell>
        <mxCell id="-1Zy-BuF8MPBCuA15nqm-42" value="preScreenResultNotVerfiied" style="rounded=1;whiteSpace=wrap;html=1;fillColor=#d5e8d4;strokeColor=#82b366;" parent="tiM2zd-CKT2HUMkE3FpP-7" vertex="1">
          <mxGeometry x="540" y="64.5" width="230" height="40" as="geometry" />
        </mxCell>
        <mxCell id="tiM2zd-CKT2HUMkE3FpP-9" value="&lt;span style=&quot;color: rgb(0, 0, 0); font-family: Helvetica; font-size: 12px; font-style: normal; font-variant-ligatures: normal; font-variant-caps: normal; font-weight: 400; letter-spacing: normal; orphans: 2; text-indent: 0px; text-transform: none; widows: 2; word-spacing: 0px; -webkit-text-stroke-width: 0px; white-space: nowrap; text-decoration-thickness: initial; text-decoration-style: initial; text-decoration-color: initial; float: none; display: inline !important;&quot;&gt;* available only for proctored Pre-Screens&lt;/span&gt;" style="text;whiteSpace=wrap;html=1;fillColor=none;align=center;labelBackgroundColor=none;" vertex="1" parent="tiM2zd-CKT2HUMkE3FpP-7">
          <mxGeometry x="465" y="270" width="260" height="40" as="geometry" />
        </mxCell>
        <mxCell id="tiM2zd-CKT2HUMkE3FpP-10" value="Company Flow" style="swimlane;horizontal=0;whiteSpace=wrap;html=1;" vertex="1" parent="1">
          <mxGeometry x="70" y="1260" width="560" height="150" as="geometry">
            <mxRectangle x="70" y="1260" width="40" height="110" as="alternateBounds" />
          </mxGeometry>
        </mxCell>
        <mxCell id="hRBbCBN-hZxy3O0n4B4--2" style="edgeStyle=orthogonalEdgeStyle;rounded=0;orthogonalLoop=1;jettySize=auto;html=1;exitX=1;exitY=0.5;exitDx=0;exitDy=0;entryX=0;entryY=0.5;entryDx=0;entryDy=0;" parent="tiM2zd-CKT2HUMkE3FpP-10" source="ZH-i35oEJuskvQAQqU1v-1" target="hRBbCBN-hZxy3O0n4B4--4" edge="1">
          <mxGeometry relative="1" as="geometry">
            <mxPoint x="335" y="69.94117647058829" as="targetPoint" />
            <mxPoint x="5" y="70" as="sourcePoint" />
          </mxGeometry>
        </mxCell>
        <mxCell id="hRBbCBN-hZxy3O0n4B4--4" value="companyTestSessionCreated" style="rounded=1;whiteSpace=wrap;html=1;fillColor=#d5e8d4;strokeColor=#82b366;" parent="tiM2zd-CKT2HUMkE3FpP-10" vertex="1">
          <mxGeometry x="345" y="50" width="180" height="40" as="geometry" />
        </mxCell>
        <mxCell id="ZH-i35oEJuskvQAQqU1v-1" value="A test session is created" style="rounded=0;whiteSpace=wrap;html=1;" parent="tiM2zd-CKT2HUMkE3FpP-10" vertex="1">
          <mxGeometry x="50" y="40" width="120" height="60" as="geometry" />
        </mxCell>
        <mxCell id="tiM2zd-CKT2HUMkE3FpP-2" value="Candidate Flow" style="swimlane;horizontal=0;whiteSpace=wrap;html=1;" vertex="1" parent="1">
          <mxGeometry x="70" y="35.5" width="1180" height="794.5" as="geometry">
            <mxRectangle x="70" y="35.5" width="40" height="110" as="alternateBounds" />
          </mxGeometry>
        </mxCell>
        <mxCell id="-1Zy-BuF8MPBCuA15nqm-1" value="Candidate" style="shape=umlActor;verticalLabelPosition=bottom;verticalAlign=top;html=1;outlineConnect=0;" parent="tiM2zd-CKT2HUMkE3FpP-2" vertex="1">
          <mxGeometry x="50" y="44.09" width="30" height="60" as="geometry" />
        </mxCell>
        <mxCell id="-1Zy-BuF8MPBCuA15nqm-2" style="edgeStyle=orthogonalEdgeStyle;rounded=0;orthogonalLoop=1;jettySize=auto;html=1;exitX=0.5;exitY=0.5;exitDx=0;exitDy=0;exitPerimeter=0;entryX=0;entryY=0.5;entryDx=0;entryDy=0;" parent="tiM2zd-CKT2HUMkE3FpP-2" source="-1Zy-BuF8MPBCuA15nqm-1" target="-1Zy-BuF8MPBCuA15nqm-3" edge="1">
          <mxGeometry relative="1" as="geometry">
            <mxPoint x="220" y="74.09" as="targetPoint" />
          </mxGeometry>
        </mxCell>
        <mxCell id="-1Zy-BuF8MPBCuA15nqm-4" value="Receives an assessment request" style="edgeLabel;html=1;align=center;verticalAlign=middle;resizable=0;points=[];" parent="-1Zy-BuF8MPBCuA15nqm-2" vertex="1" connectable="0">
          <mxGeometry x="0.2343" y="1" relative="1" as="geometry">
            <mxPoint x="-20" y="1" as="offset" />
          </mxGeometry>
        </mxCell>
        <mxCell id="tiM2zd-CKT2HUMkE3FpP-5" value="" style="rounded=0;whiteSpace=wrap;html=1;fillColor=#fec600ff;strokeColor=#FFFFFF;opacity=50;" vertex="1" parent="tiM2zd-CKT2HUMkE3FpP-2">
          <mxGeometry x="450" y="684.09" width="350" height="81.32" as="geometry" />
        </mxCell>
        <mxCell id="tiM2zd-CKT2HUMkE3FpP-3" value="" style="rounded=0;whiteSpace=wrap;html=1;fillColor=#fec600ff;strokeColor=#FFFFFF;opacity=50;" vertex="1" parent="tiM2zd-CKT2HUMkE3FpP-2">
          <mxGeometry x="270" y="134.09" width="420" height="151.32" as="geometry" />
        </mxCell>
        <mxCell id="tiM2zd-CKT2HUMkE3FpP-4" value="&lt;span style=&quot;color: rgb(0, 0, 0); font-family: Helvetica; font-size: 12px; font-style: normal; font-variant-ligatures: normal; font-variant-caps: normal; font-weight: 400; letter-spacing: normal; orphans: 2; text-indent: 0px; text-transform: none; widows: 2; word-spacing: 0px; -webkit-text-stroke-width: 0px; white-space: nowrap; text-decoration-thickness: initial; text-decoration-style: initial; text-decoration-color: initial; float: none; display: inline !important;&quot;&gt;* available only for proctored Pre-Screens&lt;/span&gt;" style="text;whiteSpace=wrap;html=1;fillColor=none;align=center;labelBackgroundColor=none;" vertex="1" parent="tiM2zd-CKT2HUMkE3FpP-2">
          <mxGeometry x="435" y="254.09" width="260" height="40" as="geometry" />
        </mxCell>
        <mxCell id="-1Zy-BuF8MPBCuA15nqm-6" style="edgeStyle=orthogonalEdgeStyle;rounded=0;orthogonalLoop=1;jettySize=auto;html=1;exitX=1;exitY=0.5;exitDx=0;exitDy=0;entryX=0;entryY=0.5;entryDx=0;entryDy=0;" parent="tiM2zd-CKT2HUMkE3FpP-2" source="-1Zy-BuF8MPBCuA15nqm-3" target="-1Zy-BuF8MPBCuA15nqm-5" edge="1">
          <mxGeometry relative="1" as="geometry" />
        </mxCell>
        <mxCell id="-1Zy-BuF8MPBCuA15nqm-8" value="Yes" style="edgeLabel;html=1;align=center;verticalAlign=middle;resizable=0;points=[];" parent="-1Zy-BuF8MPBCuA15nqm-6" vertex="1" connectable="0">
          <mxGeometry x="-0.2" y="-2" relative="1" as="geometry">
            <mxPoint y="-2" as="offset" />
          </mxGeometry>
        </mxCell>
        <mxCell id="-1Zy-BuF8MPBCuA15nqm-3" value="Declines the request?" style="rhombus;whiteSpace=wrap;html=1;" parent="tiM2zd-CKT2HUMkE3FpP-2" vertex="1">
          <mxGeometry x="274" y="29.090000000000003" width="100" height="90" as="geometry" />
        </mxCell>
        <mxCell id="-1Zy-BuF8MPBCuA15nqm-5" value="preScreenCandidateDeclined" style="rounded=1;whiteSpace=wrap;html=1;fillColor=#d5e8d4;strokeColor=#82b366;" parent="tiM2zd-CKT2HUMkE3FpP-2" vertex="1">
          <mxGeometry x="461" y="54.59" width="220" height="39" as="geometry" />
        </mxCell>
        <mxCell id="-1Zy-BuF8MPBCuA15nqm-20" value="Yes" style="edgeStyle=orthogonalEdgeStyle;rounded=0;orthogonalLoop=1;jettySize=auto;html=1;exitX=1;exitY=0.5;exitDx=0;exitDy=0;entryX=0;entryY=0.5;entryDx=0;entryDy=0;" parent="tiM2zd-CKT2HUMkE3FpP-2" source="-1Zy-BuF8MPBCuA15nqm-16" target="-1Zy-BuF8MPBCuA15nqm-19" edge="1">
          <mxGeometry relative="1" as="geometry" />
        </mxCell>
        <mxCell id="ZH-i35oEJuskvQAQqU1v-8" style="edgeStyle=orthogonalEdgeStyle;rounded=0;orthogonalLoop=1;jettySize=auto;html=1;exitX=0.5;exitY=1;exitDx=0;exitDy=0;" parent="tiM2zd-CKT2HUMkE3FpP-2" source="-1Zy-BuF8MPBCuA15nqm-16" edge="1">
          <mxGeometry relative="1" as="geometry">
            <mxPoint x="323.8571428571429" y="504.09000000000003" as="targetPoint" />
          </mxGeometry>
        </mxCell>
        <mxCell id="ZH-i35oEJuskvQAQqU1v-9" value="No" style="edgeLabel;html=1;align=center;verticalAlign=middle;resizable=0;points=[];" parent="ZH-i35oEJuskvQAQqU1v-8" vertex="1" connectable="0">
          <mxGeometry x="-0.3017" y="-3" relative="1" as="geometry">
            <mxPoint as="offset" />
          </mxGeometry>
        </mxCell>
        <mxCell id="-1Zy-BuF8MPBCuA15nqm-16" value="Starts Session?" style="rhombus;whiteSpace=wrap;html=1;" parent="tiM2zd-CKT2HUMkE3FpP-2" vertex="1">
          <mxGeometry x="274" y="304.09" width="100" height="90" as="geometry" />
        </mxCell>
        <mxCell id="ZH-i35oEJuskvQAQqU1v-2" style="edgeStyle=orthogonalEdgeStyle;rounded=0;orthogonalLoop=1;jettySize=auto;html=1;exitX=0.5;exitY=1;exitDx=0;exitDy=0;entryX=0.5;entryY=0;entryDx=0;entryDy=0;" parent="tiM2zd-CKT2HUMkE3FpP-2" source="-1Zy-BuF8MPBCuA15nqm-19" target="-1Zy-BuF8MPBCuA15nqm-24" edge="1">
          <mxGeometry relative="1" as="geometry" />
        </mxCell>
        <mxCell id="ZH-i35oEJuskvQAQqU1v-3" value="Session is finished" style="edgeLabel;html=1;align=center;verticalAlign=middle;resizable=0;points=[];" parent="ZH-i35oEJuskvQAQqU1v-2" vertex="1" connectable="0">
          <mxGeometry x="-0.1644" y="2" relative="1" as="geometry">
            <mxPoint as="offset" />
          </mxGeometry>
        </mxCell>
        <mxCell id="-1Zy-BuF8MPBCuA15nqm-19" value="companyTestSessionStarted" style="rounded=1;whiteSpace=wrap;html=1;fillColor=#d5e8d4;strokeColor=#82b366;" parent="tiM2zd-CKT2HUMkE3FpP-2" vertex="1">
          <mxGeometry x="459" y="329.59" width="220" height="39" as="geometry" />
        </mxCell>
        <mxCell id="-1Zy-BuF8MPBCuA15nqm-25" style="edgeStyle=orthogonalEdgeStyle;rounded=0;orthogonalLoop=1;jettySize=auto;html=1;exitX=0.5;exitY=1;exitDx=0;exitDy=0;entryX=0.5;entryY=0;entryDx=0;entryDy=0;" parent="tiM2zd-CKT2HUMkE3FpP-2" source="-1Zy-BuF8MPBCuA15nqm-24" target="-1Zy-BuF8MPBCuA15nqm-29" edge="1">
          <mxGeometry relative="1" as="geometry">
            <mxPoint x="569" y="744.09" as="targetPoint" />
          </mxGeometry>
        </mxCell>
        <mxCell id="-1Zy-BuF8MPBCuA15nqm-28" value="Yes" style="edgeLabel;html=1;align=center;verticalAlign=middle;resizable=0;points=[];" parent="-1Zy-BuF8MPBCuA15nqm-25" vertex="1" connectable="0">
          <mxGeometry x="-0.2308" y="-2" relative="1" as="geometry">
            <mxPoint as="offset" />
          </mxGeometry>
        </mxCell>
        <mxCell id="-1Zy-BuF8MPBCuA15nqm-26" value="No" style="edgeStyle=orthogonalEdgeStyle;rounded=0;orthogonalLoop=1;jettySize=auto;html=1;exitX=1;exitY=0.5;exitDx=0;exitDy=0;entryX=0;entryY=0.5;entryDx=0;entryDy=0;" parent="tiM2zd-CKT2HUMkE3FpP-2" source="-1Zy-BuF8MPBCuA15nqm-24" edge="1">
          <mxGeometry relative="1" as="geometry">
            <mxPoint x="679" y="594.0899999999999" as="targetPoint" />
          </mxGeometry>
        </mxCell>
        <mxCell id="-1Zy-BuF8MPBCuA15nqm-24" value="Proctored?" style="rhombus;whiteSpace=wrap;html=1;" parent="tiM2zd-CKT2HUMkE3FpP-2" vertex="1">
          <mxGeometry x="529" y="554.09" width="80" height="80" as="geometry" />
        </mxCell>
        <mxCell id="zxoss3K93Pvq59N_D_Sd-2" value="" style="edgeStyle=orthogonalEdgeStyle;rounded=0;orthogonalLoop=1;jettySize=auto;html=1;" parent="tiM2zd-CKT2HUMkE3FpP-2" source="-1Zy-BuF8MPBCuA15nqm-27" target="zxoss3K93Pvq59N_D_Sd-1" edge="1">
          <mxGeometry relative="1" as="geometry" />
        </mxCell>
        <mxCell id="-1Zy-BuF8MPBCuA15nqm-27" value="companyTestSessionFinished" style="rounded=1;whiteSpace=wrap;html=1;fillColor=#d5e8d4;strokeColor=#82b366;" parent="tiM2zd-CKT2HUMkE3FpP-2" vertex="1">
          <mxGeometry x="679" y="574.59" width="220" height="39" as="geometry" />
        </mxCell>
        <mxCell id="-1Zy-BuF8MPBCuA15nqm-29" value="preScreenResultVerificationPending" style="rounded=1;whiteSpace=wrap;html=1;fillColor=#d5e8d4;strokeColor=#82b366;" parent="tiM2zd-CKT2HUMkE3FpP-2" vertex="1">
          <mxGeometry x="459" y="704.09" width="220" height="39" as="geometry" />
        </mxCell>
        <mxCell id="-1Zy-BuF8MPBCuA15nqm-32" value="preScreenExpired" style="rounded=1;whiteSpace=wrap;html=1;fillColor=#d5e8d4;strokeColor=#82b366;" parent="tiM2zd-CKT2HUMkE3FpP-2" vertex="1">
          <mxGeometry x="214" y="704.09" width="220" height="39" as="geometry" />
        </mxCell>
        <mxCell id="ZH-i35oEJuskvQAQqU1v-6" style="edgeStyle=orthogonalEdgeStyle;rounded=0;orthogonalLoop=1;jettySize=auto;html=1;exitX=0.5;exitY=1;exitDx=0;exitDy=0;entryX=0.5;entryY=0;entryDx=0;entryDy=0;" parent="tiM2zd-CKT2HUMkE3FpP-2" source="ZH-i35oEJuskvQAQqU1v-4" target="-1Zy-BuF8MPBCuA15nqm-32" edge="1">
          <mxGeometry relative="1" as="geometry" />
        </mxCell>
        <mxCell id="ZH-i35oEJuskvQAQqU1v-7" value="Yes" style="edgeLabel;html=1;align=center;verticalAlign=middle;resizable=0;points=[];" parent="ZH-i35oEJuskvQAQqU1v-6" vertex="1" connectable="0">
          <mxGeometry x="-0.3" y="2" relative="1" as="geometry">
            <mxPoint as="offset" />
          </mxGeometry>
        </mxCell>
        <mxCell id="ZH-i35oEJuskvQAQqU1v-4" value="Expired?" style="rhombus;whiteSpace=wrap;html=1;" parent="tiM2zd-CKT2HUMkE3FpP-2" vertex="1">
          <mxGeometry x="284" y="504.09000000000003" width="80" height="80" as="geometry" />
        </mxCell>
        <mxCell id="ZH-i35oEJuskvQAQqU1v-5" value="No" style="edgeStyle=orthogonalEdgeStyle;rounded=0;orthogonalLoop=1;jettySize=auto;html=1;exitX=1;exitY=0.5;exitDx=0;exitDy=0;entryX=0.5;entryY=0;entryDx=0;entryDy=0;" parent="tiM2zd-CKT2HUMkE3FpP-2" source="ZH-i35oEJuskvQAQqU1v-4" target="ZH-i35oEJuskvQAQqU1v-4" edge="1">
          <mxGeometry x="0.25" relative="1" as="geometry">
            <Array as="points">
              <mxPoint x="370" y="544.09" />
              <mxPoint x="370" y="484.09000000000003" />
              <mxPoint x="324" y="484.09000000000003" />
            </Array>
            <mxPoint as="offset" />
          </mxGeometry>
        </mxCell>
        <mxCell id="1_Vyh3dZbqvXK6EHyWsz-4" value="" style="edgeStyle=orthogonalEdgeStyle;rounded=0;orthogonalLoop=1;jettySize=auto;html=1;" parent="tiM2zd-CKT2HUMkE3FpP-2" source="1_Vyh3dZbqvXK6EHyWsz-1" target="-1Zy-BuF8MPBCuA15nqm-16" edge="1">
          <mxGeometry relative="1" as="geometry" />
        </mxCell>
        <mxCell id="1_Vyh3dZbqvXK6EHyWsz-5" value="No" style="edgeLabel;html=1;align=center;verticalAlign=middle;resizable=0;points=[];" parent="1_Vyh3dZbqvXK6EHyWsz-4" vertex="1" connectable="0">
          <mxGeometry x="-0.1" y="1" relative="1" as="geometry">
            <mxPoint as="offset" />
          </mxGeometry>
        </mxCell>
        <mxCell id="1_Vyh3dZbqvXK6EHyWsz-7" value="" style="edgeStyle=orthogonalEdgeStyle;rounded=0;orthogonalLoop=1;jettySize=auto;html=1;" parent="tiM2zd-CKT2HUMkE3FpP-2" source="1_Vyh3dZbqvXK6EHyWsz-1" target="1_Vyh3dZbqvXK6EHyWsz-6" edge="1">
          <mxGeometry relative="1" as="geometry" />
        </mxCell>
        <mxCell id="1_Vyh3dZbqvXK6EHyWsz-8" value="Yes" style="edgeLabel;html=1;align=center;verticalAlign=middle;resizable=0;points=[];" parent="1_Vyh3dZbqvXK6EHyWsz-7" vertex="1" connectable="0">
          <mxGeometry x="-0.0575" y="2" relative="1" as="geometry">
            <mxPoint y="1" as="offset" />
          </mxGeometry>
        </mxCell>
        <mxCell id="1_Vyh3dZbqvXK6EHyWsz-1" value="Share existing result?" style="rhombus;whiteSpace=wrap;html=1;movable=1;resizable=1;rotatable=1;deletable=1;editable=1;locked=0;connectable=1;" parent="tiM2zd-CKT2HUMkE3FpP-2" vertex="1">
          <mxGeometry x="274" y="164.09" width="100" height="90" as="geometry" />
        </mxCell>
        <mxCell id="1_Vyh3dZbqvXK6EHyWsz-2" value="" style="edgeStyle=orthogonalEdgeStyle;rounded=0;orthogonalLoop=1;jettySize=auto;html=1;movable=0;resizable=0;rotatable=0;deletable=0;editable=0;locked=1;connectable=0;" parent="tiM2zd-CKT2HUMkE3FpP-2" source="-1Zy-BuF8MPBCuA15nqm-3" target="1_Vyh3dZbqvXK6EHyWsz-1" edge="1">
          <mxGeometry relative="1" as="geometry" />
        </mxCell>
        <mxCell id="1_Vyh3dZbqvXK6EHyWsz-3" value="No" style="edgeLabel;html=1;align=center;verticalAlign=middle;resizable=0;points=[];" parent="1_Vyh3dZbqvXK6EHyWsz-2" vertex="1" connectable="0">
          <mxGeometry x="-0.0444" y="2" relative="1" as="geometry">
            <mxPoint as="offset" />
          </mxGeometry>
        </mxCell>
        <mxCell id="1_Vyh3dZbqvXK6EHyWsz-6" value="preScreenResultShared" style="rounded=1;whiteSpace=wrap;html=1;fillColor=#d5e8d4;strokeColor=#82b366;" parent="tiM2zd-CKT2HUMkE3FpP-2" vertex="1">
          <mxGeometry x="461" y="189.59" width="220" height="39" as="geometry" />
        </mxCell>
        <mxCell id="zxoss3K93Pvq59N_D_Sd-1" value="preScreenIntegrityReviewUpdated" style="rounded=1;whiteSpace=wrap;html=1;fillColor=#d5e8d4;strokeColor=#82b366;" parent="tiM2zd-CKT2HUMkE3FpP-2" vertex="1">
          <mxGeometry x="940" y="574.59" width="220" height="39" as="geometry" />
        </mxCell>
        <mxCell id="tiM2zd-CKT2HUMkE3FpP-6" value="&lt;span style=&quot;color: rgb(0, 0, 0); font-family: Helvetica; font-size: 12px; font-style: normal; font-variant-ligatures: normal; font-variant-caps: normal; font-weight: 400; letter-spacing: normal; orphans: 2; text-indent: 0px; text-transform: none; widows: 2; word-spacing: 0px; -webkit-text-stroke-width: 0px; white-space: nowrap; text-decoration-thickness: initial; text-decoration-style: initial; text-decoration-color: initial; float: none; display: inline !important;&quot;&gt;* available only for proctored Pre-Screens&lt;/span&gt;" style="text;whiteSpace=wrap;html=1;fillColor=none;align=center;labelBackgroundColor=none;" vertex="1" parent="tiM2zd-CKT2HUMkE3FpP-2">
          <mxGeometry x="553" y="741.09" width="260" height="30" as="geometry" />
        </mxCell>
      </root>
    </mxGraphModel>
  </diagram>
</mxfile>
